<svg width="70" height="70" viewBox="0 0 70 70" fill="none" xmlns="http://www.w3.org/2000/svg">
<g filter="url(#filter0_d_1_130)">
<circle cx="34.7999" cy="21.7999" r="16.7999" fill="#F53838"/>
</g>
<path d="M34.7999 5C25.5214 5 17.9999 12.5215 17.9999 21.8C17.9999 31.0785 25.5214 38.6 34.7999 38.6C44.0784 38.6 51.5999 31.0785 51.5999 21.8C51.5999 12.5215 44.0784 5 34.7999 5ZM41.6336 18.762C41.6406 18.9055 41.6424 19.049 41.6424 19.189C41.6424 23.564 38.3156 28.6058 32.2291 28.6058C30.4306 28.6087 28.6696 28.0922 27.1576 27.1183C27.4149 27.1498 27.6791 27.162 27.9469 27.162C29.4974 27.162 30.9236 26.6353 32.0559 25.7463C31.3659 25.7327 30.6973 25.5042 30.1433 25.0927C29.5893 24.6811 29.1776 24.107 28.9654 23.4503C29.4609 23.5445 29.9714 23.5247 30.4581 23.3925C29.7092 23.2411 29.0357 22.8353 28.5519 22.2439C28.068 21.6526 27.8036 20.9121 27.8034 20.148V20.1078C28.2496 20.3545 28.7606 20.505 29.3031 20.5225C28.601 20.0551 28.104 19.3372 27.9137 18.5155C27.7234 17.6938 27.8542 16.8304 28.2794 16.102C29.1106 17.124 30.1471 17.9601 31.3219 18.556C32.4967 19.152 33.7835 19.4947 35.0991 19.5618C34.9319 18.8518 35.0039 18.1065 35.3039 17.4416C35.6039 16.7768 36.1152 16.2297 36.7583 15.8855C37.4013 15.5412 38.1401 15.419 38.8597 15.5379C39.5793 15.6568 40.2395 16.0102 40.7376 16.543C41.4782 16.3965 42.1883 16.1248 42.8376 15.7398C42.5908 16.5065 42.0741 17.1576 41.3834 17.572C42.0394 17.493 42.6799 17.3166 43.2839 17.0488C42.8402 17.7136 42.2814 18.2938 41.6336 18.762Z" fill="white"/>
<defs>
<filter id="filter0_d_1_130" x="0" y="0" width="69.5999" height="69.5999" filterUnits="userSpaceOnUse" color-interpolation-filters="sRGB">
<feFlood flood-opacity="0" result="BackgroundImageFix"/>
<feColorMatrix in="SourceAlpha" type="matrix" values="0 0 0 0 0 0 0 0 0 0 0 0 0 0 0 0 0 0 127 0" result="hardAlpha"/>
<feOffset dy="13"/>
<feGaussianBlur stdDeviation="9"/>
<feColorMatrix type="matrix" values="0 0 0 0 0.0658854 0 0 0 0 0.0730469 0 0 0 0 0.1375 0 0 0 0.08 0"/>
<feBlend mode="normal" in2="BackgroundImageFix" result="effect1_dropShadow_1_130"/>
<feBlend mode="normal" in="SourceGraphic" in2="effect1_dropShadow_1_130" result="shape"/>
</filter>
</defs>
</svg>
