<svg width="191" height="150" viewBox="0 0 191 150" fill="none" xmlns="http://www.w3.org/2000/svg">
<path d="M45.8035 60C45.7102 60 45.6355 59.972 45.5795 59.916C45.5235 59.8507 45.4955 59.7713 45.4955 59.678V50.536C45.4955 50.4333 45.5235 50.354 45.5795 50.298C45.6355 50.2327 45.7102 50.2 45.8035 50.2H51.5576C51.6602 50.2 51.7396 50.2327 51.7956 50.298C51.8609 50.354 51.8936 50.4333 51.8936 50.536V51.04C51.8936 51.1333 51.8609 51.208 51.7956 51.264C51.7396 51.32 51.6602 51.348 51.5576 51.348H46.7835V54.47H51.2495C51.3522 54.47 51.4316 54.5027 51.4876 54.568C51.5529 54.624 51.5855 54.7033 51.5855 54.806V55.282C51.5855 55.3753 51.5529 55.4547 51.4876 55.52C51.4316 55.576 51.3522 55.604 51.2495 55.604H46.7835V58.838H51.6696C51.7722 58.838 51.8516 58.8707 51.9075 58.936C51.9729 58.992 52.0056 59.0713 52.0056 59.174V59.678C52.0056 59.7713 51.9729 59.8507 51.9075 59.916C51.8422 59.972 51.7629 60 51.6696 60H45.8035ZM54.1121 60C54.0188 60 53.9394 59.972 53.8741 59.916C53.8181 59.8507 53.7901 59.7713 53.7901 59.678V53.042C53.7901 52.9487 53.8181 52.874 53.8741 52.818C53.9394 52.7527 54.0188 52.72 54.1121 52.72H54.7141C54.8168 52.72 54.8961 52.748 54.9521 52.804C55.0081 52.86 55.0361 52.9393 55.0361 53.042V53.658C55.3161 53.3127 55.6381 53.0467 56.0021 52.86C56.3754 52.6733 56.8374 52.58 57.3881 52.58C58.2841 52.58 58.9794 52.8693 59.4741 53.448C59.9688 54.0173 60.2161 54.7733 60.2161 55.716V59.678C60.2161 59.7713 60.1834 59.8507 60.1181 59.916C60.0621 59.972 59.9874 60 59.8941 60H59.2501C59.1568 60 59.0774 59.972 59.0121 59.916C58.9561 59.8507 58.9281 59.7713 58.9281 59.678V55.8C58.9281 55.128 58.7648 54.6053 58.4381 54.232C58.1114 53.8587 57.6448 53.672 57.0381 53.672C56.4408 53.672 55.9648 53.8633 55.6101 54.246C55.2554 54.6193 55.0781 55.1373 55.0781 55.8V59.678C55.0781 59.7713 55.0454 59.8507 54.9801 59.916C54.9241 59.972 54.8494 60 54.7561 60H54.1121ZM65.1513 60.14C64.1527 60.14 63.3733 59.86 62.8133 59.3C62.2533 58.7307 61.9593 57.9373 61.9313 56.92L61.9173 56.36L61.9313 55.8C61.9593 54.7827 62.2533 53.994 62.8133 53.434C63.3733 52.8647 64.1527 52.58 65.1513 52.58C65.8233 52.58 66.388 52.7013 66.8453 52.944C67.312 53.1773 67.6573 53.4713 67.8813 53.826C68.1147 54.1807 68.2407 54.5353 68.2593 54.89C68.2687 54.974 68.236 55.0487 68.1613 55.114C68.096 55.1793 68.0213 55.212 67.9373 55.212H67.3213C67.228 55.212 67.158 55.1933 67.1113 55.156C67.0647 55.1093 67.018 55.03 66.9713 54.918C66.8033 54.4607 66.57 54.1387 66.2713 53.952C65.982 53.756 65.6133 53.658 65.1653 53.658C64.5773 53.658 64.1107 53.84 63.7653 54.204C63.42 54.568 63.2333 55.1233 63.2053 55.87L63.1913 56.36L63.2053 56.85C63.2333 57.5967 63.42 58.152 63.7653 58.516C64.1107 58.88 64.5773 59.062 65.1653 59.062C65.6227 59.062 65.996 58.9687 66.2853 58.782C66.5747 58.586 66.8033 58.2593 66.9713 57.802C67.018 57.69 67.0647 57.6153 67.1113 57.578C67.158 57.5313 67.228 57.508 67.3213 57.508H67.9373C68.0213 57.508 68.096 57.5407 68.1613 57.606C68.236 57.6713 68.2687 57.746 68.2593 57.83C68.2407 58.1753 68.1147 58.5253 67.8813 58.88C67.6573 59.2347 67.312 59.5333 66.8453 59.776C66.388 60.0187 65.8233 60.14 65.1513 60.14ZM70.2586 60C70.1653 60 70.0859 59.972 70.0206 59.916C69.9646 59.8507 69.9366 59.7713 69.9366 59.678V53.056C69.9366 52.9627 69.9646 52.8833 70.0206 52.818C70.0859 52.7527 70.1653 52.72 70.2586 52.72H70.8466C70.9493 52.72 71.0286 52.7527 71.0846 52.818C71.1499 52.874 71.1826 52.9533 71.1826 53.056V53.672C71.5653 53.0373 72.2139 52.72 73.1286 52.72H73.6746C73.7773 52.72 73.8566 52.748 73.9126 52.804C73.9686 52.86 73.9966 52.9393 73.9966 53.042V53.56C73.9966 53.6533 73.9686 53.7327 73.9126 53.798C73.8566 53.854 73.7773 53.882 73.6746 53.882H72.8766C72.3633 53.882 71.9573 54.0313 71.6586 54.33C71.3693 54.6287 71.2246 55.0347 71.2246 55.548V59.678C71.2246 59.7713 71.1919 59.8507 71.1266 59.916C71.0613 59.972 70.9819 60 70.8886 60H70.2586ZM76.4743 62.66C76.3903 62.66 76.3203 62.632 76.2643 62.576C76.2083 62.52 76.1803 62.4547 76.1803 62.38C76.1803 62.352 76.2036 62.268 76.2503 62.128L77.3423 59.566L74.6683 53.252C74.6123 53.14 74.5843 53.0607 74.5843 53.014C74.5936 52.93 74.6263 52.86 74.6823 52.804C74.7383 52.748 74.8036 52.72 74.8783 52.72H75.5223C75.6716 52.72 75.7836 52.7947 75.8583 52.944L78.0143 58.096L80.2263 52.944C80.3009 52.7947 80.4129 52.72 80.5623 52.72H81.1923C81.2669 52.72 81.3323 52.748 81.3883 52.804C81.4443 52.86 81.4723 52.9253 81.4723 53C81.4723 53.0653 81.4489 53.1493 81.4023 53.252L77.4403 62.436C77.3936 62.5107 77.3423 62.5667 77.2863 62.604C77.2396 62.6413 77.1743 62.66 77.0903 62.66H76.4743ZM83.2199 62.66C83.1265 62.66 83.0472 62.632 82.9819 62.576C82.9259 62.52 82.8979 62.4407 82.8979 62.338V53.042C82.8979 52.9393 82.9259 52.86 82.9819 52.804C83.0472 52.748 83.1265 52.72 83.2199 52.72H83.8079C83.9105 52.72 83.9899 52.748 84.0459 52.804C84.1019 52.86 84.1299 52.9393 84.1299 53.042V53.658C84.6712 52.9393 85.4412 52.58 86.4399 52.58C87.4199 52.58 88.1525 52.8927 88.6379 53.518C89.1325 54.134 89.3939 54.9227 89.4219 55.884C89.4312 55.9867 89.4359 56.1453 89.4359 56.36C89.4359 56.5747 89.4312 56.7333 89.4219 56.836C89.3939 57.788 89.1325 58.5767 88.6379 59.202C88.1525 59.8273 87.4199 60.14 86.4399 60.14C85.4412 60.14 84.6852 59.7853 84.1719 59.076V62.338C84.1719 62.4313 84.1392 62.506 84.0739 62.562C84.0179 62.6273 83.9432 62.66 83.8499 62.66H83.2199ZM86.1739 59.048C86.8459 59.048 87.3359 58.838 87.6439 58.418C87.9519 57.998 88.1199 57.4473 88.1479 56.766C88.1572 56.6727 88.1619 56.5373 88.1619 56.36C88.1619 54.568 87.4992 53.672 86.1739 53.672C85.5205 53.672 85.0259 53.8913 84.6899 54.33C84.3632 54.7593 84.1905 55.268 84.1719 55.856C84.1625 55.9587 84.1579 56.1407 84.1579 56.402C84.1579 56.6633 84.1625 56.8453 84.1719 56.948C84.1905 57.5173 84.3679 58.012 84.7039 58.432C85.0492 58.8427 85.5392 59.048 86.1739 59.048ZM93.9143 60C92.4677 60 91.7443 59.1833 91.7443 57.55V53.798H90.6383C90.545 53.798 90.4703 53.77 90.4143 53.714C90.3583 53.658 90.3303 53.5833 90.3303 53.49V53.042C90.3303 52.9487 90.3583 52.874 90.4143 52.818C90.4703 52.7527 90.545 52.72 90.6383 52.72H91.7443V50.382C91.7443 50.2887 91.7723 50.214 91.8283 50.158C91.8843 50.0927 91.959 50.06 92.0523 50.06H92.6683C92.7617 50.06 92.8363 50.0927 92.8923 50.158C92.9577 50.214 92.9903 50.2887 92.9903 50.382V52.72H94.7263C94.8197 52.72 94.8943 52.7527 94.9503 52.818C95.0157 52.874 95.0483 52.9487 95.0483 53.042V53.49C95.0483 53.5833 95.0157 53.658 94.9503 53.714C94.8943 53.77 94.8197 53.798 94.7263 53.798H92.9903V57.452C92.9903 57.928 93.065 58.2873 93.2143 58.53C93.373 58.7727 93.639 58.894 94.0123 58.894H94.8663C94.9597 58.894 95.0343 58.9267 95.0903 58.992C95.1463 59.048 95.1743 59.1227 95.1743 59.216V59.678C95.1743 59.7713 95.1463 59.8507 95.0903 59.916C95.0343 59.972 94.9597 60 94.8663 60H93.9143ZM99.4261 60.14C98.4741 60.14 97.7134 59.846 97.1441 59.258C96.5747 58.6607 96.2621 57.8487 96.2061 56.822L96.1921 56.346L96.2061 55.884C96.2621 54.876 96.5747 54.0733 97.1441 53.476C97.7134 52.8787 98.4741 52.58 99.4261 52.58C100.453 52.58 101.246 52.9067 101.806 53.56C102.375 54.2133 102.66 55.1 102.66 56.22V56.472C102.66 56.5653 102.627 56.6447 102.562 56.71C102.506 56.766 102.431 56.794 102.338 56.794H97.4801V56.92C97.5081 57.5267 97.6947 58.0447 98.0401 58.474C98.3854 58.9033 98.8427 59.118 99.4121 59.118C99.8507 59.118 100.205 59.034 100.476 58.866C100.756 58.6887 100.966 58.5067 101.106 58.32C101.19 58.208 101.255 58.1427 101.302 58.124C101.349 58.096 101.428 58.082 101.54 58.082H102.156C102.24 58.082 102.31 58.1053 102.366 58.152C102.431 58.1987 102.464 58.2593 102.464 58.334C102.464 58.5393 102.338 58.7867 102.086 59.076C101.834 59.3653 101.475 59.6173 101.008 59.832C100.551 60.0373 100.023 60.14 99.4261 60.14ZM101.386 55.842V55.8C101.386 55.1467 101.209 54.6147 100.854 54.204C100.499 53.7933 100.023 53.588 99.4261 53.588C98.8194 53.588 98.3434 53.7933 97.9981 54.204C97.6527 54.6147 97.4801 55.1467 97.4801 55.8V55.842H101.386ZM107.022 60.14C106.042 60.14 105.305 59.8227 104.81 59.188C104.325 58.5533 104.064 57.7507 104.026 56.78L104.012 56.36L104.026 55.94C104.064 54.9787 104.33 54.1807 104.824 53.546C105.319 52.902 106.052 52.58 107.022 52.58C107.993 52.58 108.749 52.9253 109.29 53.616V50.382C109.29 50.2887 109.318 50.214 109.374 50.158C109.44 50.0927 109.519 50.06 109.612 50.06H110.242C110.336 50.06 110.41 50.0927 110.466 50.158C110.532 50.214 110.564 50.2887 110.564 50.382V59.678C110.564 59.7713 110.532 59.8507 110.466 59.916C110.41 59.972 110.336 60 110.242 60H109.64C109.547 60 109.472 59.972 109.416 59.916C109.36 59.8507 109.332 59.7713 109.332 59.678V59.076C108.8 59.7853 108.03 60.14 107.022 60.14ZM107.288 59.048C107.942 59.048 108.432 58.8333 108.758 58.404C109.085 57.9653 109.262 57.4473 109.29 56.85C109.3 56.7473 109.304 56.57 109.304 56.318C109.304 56.0567 109.3 55.8747 109.29 55.772C109.272 55.2027 109.09 54.7127 108.744 54.302C108.408 53.882 107.923 53.672 107.288 53.672C106.616 53.672 106.126 53.882 105.818 54.302C105.51 54.722 105.342 55.2727 105.314 55.954L105.3 56.36C105.3 58.152 105.963 59.048 107.288 59.048ZM119.802 60.14C118.561 60.14 117.614 59.804 116.96 59.132C116.316 58.4507 115.971 57.522 115.924 56.346C115.915 56.094 115.91 55.6833 115.91 55.114C115.91 54.5353 115.915 54.1153 115.924 53.854C115.971 52.678 116.316 51.754 116.96 51.082C117.614 50.4007 118.561 50.06 119.802 50.06C120.633 50.06 121.338 50.2093 121.916 50.508C122.495 50.7973 122.929 51.18 123.218 51.656C123.517 52.132 123.68 52.6407 123.708 53.182C123.708 53.266 123.676 53.336 123.61 53.392C123.554 53.4387 123.484 53.462 123.4 53.462H122.7C122.607 53.462 122.532 53.4387 122.476 53.392C122.42 53.3453 122.378 53.266 122.35 53.154C122.192 52.4353 121.902 51.9313 121.482 51.642C121.072 51.3527 120.512 51.208 119.802 51.208C118.178 51.208 117.334 52.1133 117.268 53.924C117.259 54.176 117.254 54.5633 117.254 55.086C117.254 55.6087 117.259 56.0053 117.268 56.276C117.334 58.0773 118.178 58.978 119.802 58.978C120.502 58.978 121.062 58.8333 121.482 58.544C121.902 58.2547 122.192 57.7553 122.35 57.046C122.378 56.934 122.42 56.8547 122.476 56.808C122.532 56.7613 122.607 56.738 122.7 56.738H123.4C123.484 56.738 123.554 56.766 123.61 56.822C123.676 56.8687 123.708 56.934 123.708 57.018C123.68 57.5593 123.517 58.068 123.218 58.544C122.929 59.02 122.495 59.4073 121.916 59.706C121.338 59.9953 120.633 60.14 119.802 60.14ZM128.385 60.14C127.358 60.14 126.565 59.8507 126.005 59.272C125.454 58.6933 125.16 57.9233 125.123 56.962L125.109 56.36L125.123 55.758C125.16 54.7967 125.459 54.0267 126.019 53.448C126.588 52.8693 127.377 52.58 128.385 52.58C129.393 52.58 130.177 52.8693 130.737 53.448C131.306 54.0267 131.609 54.7967 131.647 55.758C131.665 55.9633 131.675 56.164 131.675 56.36C131.675 56.556 131.665 56.7567 131.647 56.962C131.609 57.9233 131.311 58.6933 130.751 59.272C130.2 59.8507 129.411 60.14 128.385 60.14ZM128.385 59.09C128.982 59.09 129.453 58.9033 129.799 58.53C130.153 58.1473 130.345 57.6013 130.373 56.892C130.382 56.7987 130.387 56.6213 130.387 56.36C130.387 56.0987 130.382 55.9213 130.373 55.828C130.345 55.1187 130.153 54.5773 129.799 54.204C129.453 53.8213 128.982 53.63 128.385 53.63C127.787 53.63 127.311 53.8213 126.957 54.204C126.611 54.5773 126.425 55.1187 126.397 55.828L126.383 56.36L126.397 56.892C126.425 57.6013 126.611 58.1473 126.957 58.53C127.311 58.9033 127.787 59.09 128.385 59.09ZM133.764 60C133.671 60 133.592 59.972 133.526 59.916C133.47 59.8507 133.442 59.7713 133.442 59.678V53.042C133.442 52.9487 133.47 52.874 133.526 52.818C133.592 52.7527 133.671 52.72 133.764 52.72H134.366C134.469 52.72 134.548 52.748 134.604 52.804C134.66 52.86 134.688 52.9393 134.688 53.042V53.658C134.968 53.3127 135.29 53.0467 135.654 52.86C136.028 52.6733 136.49 52.58 137.04 52.58C137.936 52.58 138.632 52.8693 139.126 53.448C139.621 54.0173 139.868 54.7733 139.868 55.716V59.678C139.868 59.7713 139.836 59.8507 139.77 59.916C139.714 59.972 139.64 60 139.546 60H138.902C138.809 60 138.73 59.972 138.664 59.916C138.608 59.8507 138.58 59.7713 138.58 59.678V55.8C138.58 55.128 138.417 54.6053 138.09 54.232C137.764 53.8587 137.297 53.672 136.69 53.672C136.093 53.672 135.617 53.8633 135.262 54.246C134.908 54.6193 134.73 55.1373 134.73 55.8V59.678C134.73 59.7713 134.698 59.8507 134.632 59.916C134.576 59.972 134.502 60 134.408 60H133.764ZM142.214 60C142.12 60 142.041 59.972 141.976 59.916C141.92 59.8507 141.892 59.7713 141.892 59.678V53.042C141.892 52.9487 141.92 52.874 141.976 52.818C142.041 52.7527 142.12 52.72 142.214 52.72H142.816C142.918 52.72 142.998 52.748 143.054 52.804C143.11 52.86 143.138 52.9393 143.138 53.042V53.658C143.418 53.3127 143.74 53.0467 144.104 52.86C144.477 52.6733 144.939 52.58 145.49 52.58C146.386 52.58 147.081 52.8693 147.576 53.448C148.07 54.0173 148.318 54.7733 148.318 55.716V59.678C148.318 59.7713 148.285 59.8507 148.22 59.916C148.164 59.972 148.089 60 147.996 60H147.352C147.258 60 147.179 59.972 147.114 59.916C147.058 59.8507 147.03 59.7713 147.03 59.678V55.8C147.03 55.128 146.866 54.6053 146.54 54.232C146.213 53.8587 145.746 53.672 145.14 53.672C144.542 53.672 144.066 53.8633 143.712 54.246C143.357 54.6193 143.18 55.1373 143.18 55.8V59.678C143.18 59.7713 143.147 59.8507 143.082 59.916C143.026 59.972 142.951 60 142.858 60H142.214ZM153.225 60.14C152.273 60.14 151.512 59.846 150.943 59.258C150.374 58.6607 150.061 57.8487 150.005 56.822L149.991 56.346L150.005 55.884C150.061 54.876 150.374 54.0733 150.943 53.476C151.512 52.8787 152.273 52.58 153.225 52.58C154.252 52.58 155.045 52.9067 155.605 53.56C156.174 54.2133 156.459 55.1 156.459 56.22V56.472C156.459 56.5653 156.426 56.6447 156.361 56.71C156.305 56.766 156.23 56.794 156.137 56.794H151.279V56.92C151.307 57.5267 151.494 58.0447 151.839 58.474C152.184 58.9033 152.642 59.118 153.211 59.118C153.65 59.118 154.004 59.034 154.275 58.866C154.555 58.6887 154.765 58.5067 154.905 58.32C154.989 58.208 155.054 58.1427 155.101 58.124C155.148 58.096 155.227 58.082 155.339 58.082H155.955C156.039 58.082 156.109 58.1053 156.165 58.152C156.23 58.1987 156.263 58.2593 156.263 58.334C156.263 58.5393 156.137 58.7867 155.885 59.076C155.633 59.3653 155.274 59.6173 154.807 59.832C154.35 60.0373 153.822 60.14 153.225 60.14ZM155.185 55.842V55.8C155.185 55.1467 155.008 54.6147 154.653 54.204C154.298 53.7933 153.822 53.588 153.225 53.588C152.618 53.588 152.142 53.7933 151.797 54.204C151.452 54.6147 151.279 55.1467 151.279 55.8V55.842H155.185ZM161.073 60.14C160.075 60.14 159.295 59.86 158.735 59.3C158.175 58.7307 157.881 57.9373 157.853 56.92L157.839 56.36L157.853 55.8C157.881 54.7827 158.175 53.994 158.735 53.434C159.295 52.8647 160.075 52.58 161.073 52.58C161.745 52.58 162.31 52.7013 162.767 52.944C163.234 53.1773 163.579 53.4713 163.803 53.826C164.037 54.1807 164.163 54.5353 164.181 54.89C164.191 54.974 164.158 55.0487 164.083 55.114C164.018 55.1793 163.943 55.212 163.859 55.212H163.243C163.15 55.212 163.08 55.1933 163.033 55.156C162.987 55.1093 162.94 55.03 162.893 54.918C162.725 54.4607 162.492 54.1387 162.193 53.952C161.904 53.756 161.535 53.658 161.087 53.658C160.499 53.658 160.033 53.84 159.687 54.204C159.342 54.568 159.155 55.1233 159.127 55.87L159.113 56.36L159.127 56.85C159.155 57.5967 159.342 58.152 159.687 58.516C160.033 58.88 160.499 59.062 161.087 59.062C161.545 59.062 161.918 58.9687 162.207 58.782C162.497 58.586 162.725 58.2593 162.893 57.802C162.94 57.69 162.987 57.6153 163.033 57.578C163.08 57.5313 163.15 57.508 163.243 57.508H163.859C163.943 57.508 164.018 57.5407 164.083 57.606C164.158 57.6713 164.191 57.746 164.181 57.83C164.163 58.1753 164.037 58.5253 163.803 58.88C163.579 59.2347 163.234 59.5333 162.767 59.776C162.31 60.0187 161.745 60.14 161.073 60.14ZM168.658 60C167.212 60 166.488 59.1833 166.488 57.55V53.798H165.382C165.289 53.798 165.214 53.77 165.158 53.714C165.102 53.658 165.074 53.5833 165.074 53.49V53.042C165.074 52.9487 165.102 52.874 165.158 52.818C165.214 52.7527 165.289 52.72 165.382 52.72H166.488V50.382C166.488 50.2887 166.516 50.214 166.572 50.158C166.628 50.0927 166.703 50.06 166.796 50.06H167.412C167.506 50.06 167.58 50.0927 167.636 50.158C167.702 50.214 167.734 50.2887 167.734 50.382V52.72H169.47C169.564 52.72 169.638 52.7527 169.694 52.818C169.76 52.874 169.792 52.9487 169.792 53.042V53.49C169.792 53.5833 169.76 53.658 169.694 53.714C169.638 53.77 169.564 53.798 169.47 53.798H167.734V57.452C167.734 57.928 167.809 58.2873 167.958 58.53C168.117 58.7727 168.383 58.894 168.756 58.894H169.61C169.704 58.894 169.778 58.9267 169.834 58.992C169.89 59.048 169.918 59.1227 169.918 59.216V59.678C169.918 59.7713 169.89 59.8507 169.834 59.916C169.778 59.972 169.704 60 169.61 60H168.658ZM171.496 51.348C171.403 51.348 171.324 51.32 171.258 51.264C171.202 51.1987 171.174 51.1193 171.174 51.026V50.298C171.174 50.2047 171.202 50.1253 171.258 50.06C171.324 49.9947 171.403 49.962 171.496 49.962H172.322C172.416 49.962 172.495 49.9947 172.56 50.06C172.626 50.1253 172.658 50.2047 172.658 50.298V51.026C172.658 51.1193 172.626 51.1987 172.56 51.264C172.495 51.32 172.416 51.348 172.322 51.348H171.496ZM171.608 60C171.515 60 171.436 59.972 171.37 59.916C171.314 59.8507 171.286 59.7713 171.286 59.678V53.042C171.286 52.9487 171.314 52.874 171.37 52.818C171.436 52.7527 171.515 52.72 171.608 52.72H172.224C172.318 52.72 172.392 52.7527 172.448 52.818C172.514 52.874 172.546 52.9487 172.546 53.042V59.678C172.546 59.7713 172.514 59.8507 172.448 59.916C172.392 59.972 172.318 60 172.224 60H171.608ZM177.603 60.14C176.577 60.14 175.783 59.8507 175.223 59.272C174.673 58.6933 174.379 57.9233 174.341 56.962L174.327 56.36L174.341 55.758C174.379 54.7967 174.677 54.0267 175.237 53.448C175.807 52.8693 176.595 52.58 177.603 52.58C178.611 52.58 179.395 52.8693 179.955 53.448C180.525 54.0267 180.828 54.7967 180.865 55.758C180.884 55.9633 180.893 56.164 180.893 56.36C180.893 56.556 180.884 56.7567 180.865 56.962C180.828 57.9233 180.529 58.6933 179.969 59.272C179.419 59.8507 178.63 60.14 177.603 60.14ZM177.603 59.09C178.201 59.09 178.672 58.9033 179.017 58.53C179.372 58.1473 179.563 57.6013 179.591 56.892C179.601 56.7987 179.605 56.6213 179.605 56.36C179.605 56.0987 179.601 55.9213 179.591 55.828C179.563 55.1187 179.372 54.5773 179.017 54.204C178.672 53.8213 178.201 53.63 177.603 53.63C177.006 53.63 176.53 53.8213 176.175 54.204C175.83 54.5773 175.643 55.1187 175.615 55.828L175.601 56.36L175.615 56.892C175.643 57.6013 175.83 58.1473 176.175 58.53C176.53 58.9033 177.006 59.09 177.603 59.09ZM182.983 60C182.89 60 182.811 59.972 182.745 59.916C182.689 59.8507 182.661 59.7713 182.661 59.678V53.042C182.661 52.9487 182.689 52.874 182.745 52.818C182.811 52.7527 182.89 52.72 182.983 52.72H183.585C183.688 52.72 183.767 52.748 183.823 52.804C183.879 52.86 183.907 52.9393 183.907 53.042V53.658C184.187 53.3127 184.509 53.0467 184.873 52.86C185.247 52.6733 185.709 52.58 186.259 52.58C187.155 52.58 187.851 52.8693 188.345 53.448C188.84 54.0173 189.087 54.7733 189.087 55.716V59.678C189.087 59.7713 189.055 59.8507 188.989 59.916C188.933 59.972 188.859 60 188.765 60H188.121C188.028 60 187.949 59.972 187.883 59.916C187.827 59.8507 187.799 59.7713 187.799 59.678V55.8C187.799 55.128 187.636 54.6053 187.309 54.232C186.983 53.8587 186.516 53.672 185.909 53.672C185.312 53.672 184.836 53.8633 184.481 54.246C184.127 54.6193 183.949 55.1373 183.949 55.8V59.678C183.949 59.7713 183.917 59.8507 183.851 59.916C183.795 59.972 183.721 60 183.627 60H182.983Z" fill="#4F5665"/>
<path d="M10.5115 59.73C10.3802 59.7303 10.2502 59.7046 10.1289 59.6545C10.0076 59.6044 9.89732 59.5308 9.8045 59.438L5.5625 55.195C5.46693 55.1028 5.39067 54.9925 5.33818 54.8706C5.28568 54.7486 5.258 54.6174 5.25676 54.4846C5.25551 54.3518 5.28072 54.2201 5.33091 54.0972C5.38111 53.9743 5.45528 53.8626 5.54911 53.7686C5.64293 53.6747 5.75453 53.6003 5.87739 53.55C6.00025 53.4996 6.13191 53.4742 6.26469 53.4753C6.39747 53.4763 6.52871 53.5038 6.65075 53.5561C6.77279 53.6085 6.88319 53.6846 6.9755 53.78L10.5105 57.315L16.8755 50.952C17.063 50.7644 17.3174 50.6589 17.5826 50.6588C17.8479 50.6587 18.1024 50.764 18.29 50.9515C18.4776 51.139 18.5831 51.3934 18.5832 51.6586C18.5833 51.9239 18.478 52.1784 18.2905 52.366L11.2185 59.438C11.1257 59.5308 11.0154 59.6044 10.8941 59.6545C10.7728 59.7046 10.6428 59.7303 10.5115 59.73Z" fill="#2FAB73"/>
<path d="M10.7495 99.73C10.6183 99.7303 10.4882 99.7046 10.3669 99.6545C10.2456 99.6044 10.1354 99.5308 10.0425 99.438L5.80054 95.195C5.70496 95.1028 5.62871 94.9925 5.57621 94.8706C5.52372 94.7486 5.49604 94.6174 5.4948 94.4846C5.49355 94.3518 5.51876 94.2201 5.56895 94.0972C5.61915 93.9743 5.69332 93.8626 5.78714 93.7686C5.88097 93.6747 5.99257 93.6003 6.11543 93.55C6.23829 93.4996 6.36995 93.4742 6.50273 93.4753C6.6355 93.4763 6.76674 93.5038 6.88878 93.5561C7.01082 93.6085 7.12122 93.6846 7.21354 93.78L10.7485 97.315L17.1135 90.952C17.301 90.7644 17.5554 90.6589 17.8207 90.6588C18.086 90.6587 18.3404 90.764 18.528 90.9515C18.7157 91.139 18.8211 91.3934 18.8212 91.6586C18.8213 91.9239 18.716 92.1784 18.5285 92.366L11.4565 99.438C11.3637 99.5308 11.2535 99.6044 11.1322 99.6545C11.0108 99.7046 10.8808 99.7303 10.7495 99.73Z" fill="#2FAB73"/>
<path d="M45.8035 100C45.7102 100 45.6355 99.972 45.5795 99.916C45.5235 99.8507 45.4955 99.7713 45.4955 99.678V90.536C45.4955 90.4333 45.5235 90.354 45.5795 90.298C45.6355 90.2327 45.7102 90.2 45.8035 90.2H46.4196C46.5129 90.2 46.5829 90.2187 46.6296 90.256C46.6762 90.2933 46.7229 90.34 46.7695 90.396L51.4595 97.62V90.536C51.4595 90.4333 51.4875 90.354 51.5436 90.298C51.6089 90.2327 51.6882 90.2 51.7815 90.2H52.4116C52.5142 90.2 52.5936 90.2327 52.6496 90.298C52.7149 90.354 52.7475 90.4333 52.7475 90.536V99.664C52.7475 99.7573 52.7149 99.8367 52.6496 99.902C52.5936 99.9673 52.5189 100 52.4255 100H51.7956C51.6369 100 51.5249 99.9347 51.4595 99.804L46.7695 92.65V99.678C46.7695 99.7713 46.7369 99.8507 46.6715 99.916C46.6155 99.972 46.5409 100 46.4475 100H45.8035ZM57.9746 100.14C56.9479 100.14 56.1546 99.8507 55.5946 99.272C55.0439 98.6933 54.7499 97.9233 54.7126 96.962L54.6986 96.36L54.7126 95.758C54.7499 94.7967 55.0486 94.0267 55.6086 93.448C56.1779 92.8693 56.9666 92.58 57.9746 92.58C58.9826 92.58 59.7666 92.8693 60.3266 93.448C60.8959 94.0267 61.1992 94.7967 61.2366 95.758C61.2552 95.9633 61.2646 96.164 61.2646 96.36C61.2646 96.556 61.2552 96.7567 61.2366 96.962C61.1992 97.9233 60.9006 98.6933 60.3406 99.272C59.7899 99.8507 59.0012 100.14 57.9746 100.14ZM57.9746 99.09C58.5719 99.09 59.0432 98.9033 59.3886 98.53C59.7432 98.1473 59.9346 97.6013 59.9626 96.892C59.9719 96.7987 59.9766 96.6213 59.9766 96.36C59.9766 96.0987 59.9719 95.9213 59.9626 95.828C59.9346 95.1187 59.7432 94.5773 59.3886 94.204C59.0432 93.8213 58.5719 93.63 57.9746 93.63C57.3772 93.63 56.9012 93.8213 56.5466 94.204C56.2012 94.5773 56.0146 95.1187 55.9866 95.828L55.9726 96.36L55.9866 96.892C56.0146 97.6013 56.2012 98.1473 56.5466 98.53C56.9012 98.9033 57.3772 99.09 57.9746 99.09ZM68.7681 100C68.6748 100 68.5955 99.972 68.5301 99.916C68.4741 99.8507 68.4461 99.7713 68.4461 99.678V91.404H65.7441C65.6508 91.404 65.5715 91.376 65.5061 91.32C65.4501 91.2547 65.4221 91.1753 65.4221 91.082V90.536C65.4221 90.4333 65.4501 90.354 65.5061 90.298C65.5715 90.2327 65.6508 90.2 65.7441 90.2H72.4641C72.5668 90.2 72.6461 90.2327 72.7021 90.298C72.7581 90.354 72.7861 90.4333 72.7861 90.536V91.082C72.7861 91.1753 72.7535 91.2547 72.6881 91.32C72.6321 91.376 72.5575 91.404 72.4641 91.404H69.7761V99.678C69.7761 99.7713 69.7435 99.8507 69.6781 99.916C69.6128 99.972 69.5335 100 69.4401 100H68.7681ZM73.3621 100C73.2688 100 73.1894 99.972 73.1241 99.916C73.0681 99.8507 73.0401 99.7713 73.0401 99.678V93.056C73.0401 92.9627 73.0681 92.8833 73.1241 92.818C73.1894 92.7527 73.2688 92.72 73.3621 92.72H73.9501C74.0528 92.72 74.1321 92.7527 74.1881 92.818C74.2534 92.874 74.2861 92.9533 74.2861 93.056V93.672C74.6688 93.0373 75.3174 92.72 76.2321 92.72H76.7781C76.8808 92.72 76.9601 92.748 77.0161 92.804C77.0721 92.86 77.1001 92.9393 77.1001 93.042V93.56C77.1001 93.6533 77.0721 93.7327 77.0161 93.798C76.9601 93.854 76.8808 93.882 76.7781 93.882H75.9801C75.4668 93.882 75.0608 94.0313 74.7621 94.33C74.4728 94.6287 74.3281 95.0347 74.3281 95.548V99.678C74.3281 99.7713 74.2954 99.8507 74.2301 99.916C74.1648 99.972 74.0854 100 73.9921 100H73.3621ZM80.2104 100.14C79.7531 100.14 79.3284 100.047 78.9364 99.86C78.5537 99.6733 78.2457 99.4213 78.0124 99.104C77.7884 98.7773 77.6764 98.418 77.6764 98.026C77.6764 97.41 77.9284 96.906 78.4324 96.514C78.9364 96.122 79.6224 95.8607 80.4904 95.73L82.5904 95.436V95.03C82.5904 94.0687 82.0351 93.588 80.9244 93.588C80.4951 93.588 80.1497 93.6767 79.8884 93.854C79.6271 94.022 79.4357 94.2227 79.3144 94.456C79.2771 94.5493 79.2351 94.6147 79.1884 94.652C79.1511 94.68 79.0951 94.694 79.0204 94.694H78.4744C78.3904 94.694 78.3157 94.666 78.2504 94.61C78.1944 94.5447 78.1664 94.47 78.1664 94.386C78.1664 94.1713 78.2644 93.924 78.4604 93.644C78.6657 93.3547 78.9784 93.1073 79.3984 92.902C79.8184 92.6873 80.3317 92.58 80.9384 92.58C81.9837 92.58 82.7304 92.8227 83.1784 93.308C83.6357 93.7933 83.8644 94.4 83.8644 95.128V99.678C83.8644 99.7713 83.8317 99.8507 83.7664 99.916C83.7104 99.972 83.6357 100 83.5424 100H82.9264C82.8331 100 82.7584 99.972 82.7024 99.916C82.6464 99.8507 82.6184 99.7713 82.6184 99.678V99.062C82.4131 99.37 82.1144 99.6267 81.7224 99.832C81.3304 100.037 80.8264 100.14 80.2104 100.14ZM80.4904 99.118C81.1064 99.118 81.6104 98.9173 82.0024 98.516C82.3944 98.1147 82.5904 97.5313 82.5904 96.766V96.374L80.9524 96.612C80.2804 96.7053 79.7717 96.864 79.4264 97.088C79.0811 97.312 78.9084 97.592 78.9084 97.928C78.9084 98.3107 79.0624 98.6047 79.3704 98.81C79.6877 99.0153 80.0611 99.118 80.4904 99.118ZM86.8733 100C86.78 100 86.7006 99.972 86.6353 99.916C86.5793 99.8507 86.5513 99.7713 86.5513 99.678V93.798H85.3473C85.254 93.798 85.1746 93.77 85.1093 93.714C85.0533 93.658 85.0253 93.5833 85.0253 93.49V93.042C85.0253 92.9487 85.0533 92.874 85.1093 92.818C85.1746 92.7527 85.254 92.72 85.3473 92.72H86.5513V92.02C86.5513 91.264 86.7333 90.6807 87.0973 90.27C87.4706 89.85 88.0773 89.64 88.9173 89.64H89.7433C89.8366 89.64 89.9113 89.6727 89.9673 89.738C90.0326 89.794 90.0653 89.8687 90.0653 89.962V90.41C90.0653 90.5033 90.0326 90.578 89.9673 90.634C89.9113 90.69 89.8366 90.718 89.7433 90.718H88.9453C88.516 90.718 88.2173 90.83 88.0493 91.054C87.8813 91.278 87.7973 91.6233 87.7973 92.09V92.72H90.8073V92.02C90.8073 91.264 90.9893 90.6807 91.3533 90.27C91.7266 89.85 92.3333 89.64 93.1733 89.64H95.2593C95.362 89.64 95.4413 89.668 95.4973 89.724C95.5533 89.78 95.5813 89.8593 95.5813 89.962V90.41C95.5813 90.5033 95.5486 90.578 95.4833 90.634C95.4273 90.69 95.3526 90.718 95.2593 90.718H93.2013C92.772 90.718 92.4733 90.83 92.3053 91.054C92.1373 91.278 92.0533 91.6233 92.0533 92.09V92.72H95.2593C95.362 92.72 95.4413 92.748 95.4973 92.804C95.5533 92.86 95.5813 92.9393 95.5813 93.042V99.678C95.5813 99.7713 95.5486 99.8507 95.4833 99.916C95.4273 99.972 95.3526 100 95.2593 100H94.6573C94.564 100 94.4846 99.972 94.4193 99.916C94.3633 99.8507 94.3353 99.7713 94.3353 99.678V93.798H92.0533V99.678C92.0533 99.7713 92.0206 99.8507 91.9553 99.916C91.8993 99.972 91.8246 100 91.7313 100H91.1153C91.022 100 90.9473 99.972 90.8913 99.916C90.8353 99.8507 90.8073 99.7713 90.8073 99.678V93.798H87.7973V99.678C87.7973 99.7713 87.7646 99.8507 87.6993 99.916C87.6433 99.972 87.5686 100 87.4753 100H86.8733ZM100.589 100.14C99.5902 100.14 98.8108 99.86 98.2508 99.3C97.6908 98.7307 97.3968 97.9373 97.3688 96.92L97.3548 96.36L97.3688 95.8C97.3968 94.7827 97.6908 93.994 98.2508 93.434C98.8108 92.8647 99.5902 92.58 100.589 92.58C101.261 92.58 101.825 92.7013 102.283 92.944C102.749 93.1773 103.095 93.4713 103.319 93.826C103.552 94.1807 103.678 94.5353 103.697 94.89C103.706 94.974 103.673 95.0487 103.599 95.114C103.533 95.1793 103.459 95.212 103.375 95.212H102.759C102.665 95.212 102.595 95.1933 102.549 95.156C102.502 95.1093 102.455 95.03 102.409 94.918C102.241 94.4607 102.007 94.1387 101.709 93.952C101.419 93.756 101.051 93.658 100.603 93.658C100.015 93.658 99.5482 93.84 99.2028 94.204C98.8575 94.568 98.6708 95.1233 98.6428 95.87L98.6288 96.36L98.6428 96.85C98.6708 97.5967 98.8575 98.152 99.2028 98.516C99.5482 98.88 100.015 99.062 100.603 99.062C101.06 99.062 101.433 98.9687 101.723 98.782C102.012 98.586 102.241 98.2593 102.409 97.802C102.455 97.69 102.502 97.6153 102.549 97.578C102.595 97.5313 102.665 97.508 102.759 97.508H103.375C103.459 97.508 103.533 97.5407 103.599 97.606C103.673 97.6713 103.706 97.746 103.697 97.83C103.678 98.1753 103.552 98.5253 103.319 98.88C103.095 99.2347 102.749 99.5333 102.283 99.776C101.825 100.019 101.261 100.14 100.589 100.14ZM109.309 100C109.216 100 109.141 99.972 109.085 99.916C109.029 99.8507 109.001 99.7713 109.001 99.678V90.522C109.001 90.4287 109.029 90.354 109.085 90.298C109.141 90.2327 109.216 90.2 109.309 90.2H110.009C110.103 90.2 110.177 90.2327 110.233 90.298C110.289 90.354 110.317 90.4287 110.317 90.522V98.824H114.993C115.096 98.824 115.175 98.8567 115.231 98.922C115.297 98.978 115.329 99.0527 115.329 99.146V99.678C115.329 99.7713 115.297 99.8507 115.231 99.916C115.166 99.972 115.087 100 114.993 100H109.309ZM119.471 100.14C118.444 100.14 117.651 99.8507 117.091 99.272C116.54 98.6933 116.246 97.9233 116.209 96.962L116.195 96.36L116.209 95.758C116.246 94.7967 116.545 94.0267 117.105 93.448C117.674 92.8693 118.463 92.58 119.471 92.58C120.479 92.58 121.263 92.8693 121.823 93.448C122.392 94.0267 122.695 94.7967 122.733 95.758C122.751 95.9633 122.761 96.164 122.761 96.36C122.761 96.556 122.751 96.7567 122.733 96.962C122.695 97.9233 122.397 98.6933 121.837 99.272C121.286 99.8507 120.497 100.14 119.471 100.14ZM119.471 99.09C120.068 99.09 120.539 98.9033 120.885 98.53C121.239 98.1473 121.431 97.6013 121.459 96.892C121.468 96.7987 121.473 96.6213 121.473 96.36C121.473 96.0987 121.468 95.9213 121.459 95.828C121.431 95.1187 121.239 94.5773 120.885 94.204C120.539 93.8213 120.068 93.63 119.471 93.63C118.873 93.63 118.397 93.8213 118.043 94.204C117.697 94.5773 117.511 95.1187 117.483 95.828L117.469 96.36L117.483 96.892C117.511 97.6013 117.697 98.1473 118.043 98.53C118.397 98.9033 118.873 99.09 119.471 99.09ZM127.482 103.08C126.708 103.08 126.087 102.949 125.62 102.688C125.154 102.427 124.822 102.128 124.626 101.792C124.44 101.456 124.346 101.167 124.346 100.924C124.346 100.84 124.379 100.765 124.444 100.7C124.51 100.644 124.584 100.616 124.668 100.616H125.284C125.368 100.616 125.438 100.635 125.494 100.672C125.55 100.719 125.597 100.798 125.634 100.91C125.896 101.657 126.488 102.03 127.412 102.03C128.112 102.03 128.63 101.881 128.966 101.582C129.302 101.283 129.47 100.756 129.47 100V99.034C128.929 99.7247 128.173 100.07 127.202 100.07C126.213 100.07 125.471 99.7527 124.976 99.118C124.491 98.4833 124.234 97.6807 124.206 96.71L124.192 96.318L124.206 95.94C124.234 94.9787 124.491 94.1807 124.976 93.546C125.471 92.902 126.213 92.58 127.202 92.58C128.182 92.58 128.948 92.9393 129.498 93.658V93.056C129.498 92.9627 129.526 92.8833 129.582 92.818C129.648 92.7527 129.727 92.72 129.82 92.72H130.422C130.516 92.72 130.59 92.7527 130.646 92.818C130.712 92.8833 130.744 92.9627 130.744 93.056V99.846C130.744 102.002 129.657 103.08 127.482 103.08ZM127.454 98.978C128.108 98.978 128.598 98.768 128.924 98.348C129.26 97.9187 129.442 97.4053 129.47 96.808C129.48 96.724 129.484 96.5607 129.484 96.318C129.484 96.0847 129.48 95.926 129.47 95.842C129.442 95.2447 129.26 94.736 128.924 94.316C128.598 93.8867 128.108 93.672 127.454 93.672C126.782 93.672 126.292 93.8867 125.984 94.316C125.686 94.736 125.522 95.282 125.494 95.954L125.48 96.318L125.494 96.696C125.522 97.368 125.686 97.9187 125.984 98.348C126.292 98.768 126.782 98.978 127.454 98.978ZM135.347 100.14C134.703 100.14 134.157 100.037 133.709 99.832C133.27 99.6173 132.943 99.3747 132.729 99.104C132.514 98.8333 132.407 98.6093 132.407 98.432C132.407 98.3387 132.439 98.2687 132.505 98.222C132.57 98.166 132.64 98.138 132.715 98.138H133.303C133.359 98.138 133.401 98.1473 133.429 98.166C133.466 98.1847 133.513 98.2267 133.569 98.292C133.783 98.5533 134.021 98.7587 134.283 98.908C134.553 99.0573 134.913 99.132 135.361 99.132C135.865 99.132 136.266 99.0387 136.565 98.852C136.873 98.6653 137.027 98.3947 137.027 98.04C137.027 97.8067 136.961 97.62 136.831 97.48C136.7 97.34 136.481 97.214 136.173 97.102C135.874 96.99 135.426 96.8687 134.829 96.738C134.017 96.5607 133.443 96.304 133.107 95.968C132.771 95.632 132.603 95.198 132.603 94.666C132.603 94.3207 132.705 93.9893 132.911 93.672C133.116 93.3453 133.419 93.084 133.821 92.888C134.231 92.6827 134.717 92.58 135.277 92.58C135.865 92.58 136.364 92.678 136.775 92.874C137.195 93.07 137.507 93.2987 137.713 93.56C137.927 93.8213 138.035 94.0407 138.035 94.218C138.035 94.302 138.002 94.372 137.937 94.428C137.881 94.484 137.811 94.512 137.727 94.512H137.195C137.064 94.512 136.971 94.4607 136.915 94.358C136.756 94.1807 136.621 94.0453 136.509 93.952C136.406 93.8493 136.252 93.7653 136.047 93.7C135.841 93.6253 135.585 93.588 135.277 93.588C134.819 93.588 134.469 93.686 134.227 93.882C133.984 94.0687 133.863 94.3207 133.863 94.638C133.863 94.834 133.914 95.002 134.017 95.142C134.119 95.2727 134.315 95.3987 134.605 95.52C134.894 95.632 135.323 95.7487 135.893 95.87C136.779 96.0567 137.405 96.3227 137.769 96.668C138.142 97.0133 138.329 97.4567 138.329 97.998C138.329 98.3993 138.212 98.7633 137.979 99.09C137.755 99.4167 137.414 99.6733 136.957 99.86C136.509 100.047 135.972 100.14 135.347 100.14Z" fill="#4F5665"/>
<path d="M10.486 139.73C10.3547 139.73 10.2247 139.705 10.1034 139.655C9.98204 139.604 9.87181 139.531 9.77899 139.438L5.53699 135.195C5.44141 135.103 5.36516 134.993 5.31266 134.871C5.26017 134.749 5.23249 134.617 5.23125 134.485C5.23 134.352 5.25521 134.22 5.3054 134.097C5.3556 133.974 5.42977 133.863 5.52359 133.769C5.61742 133.675 5.72902 133.6 5.85188 133.55C5.97474 133.5 6.1064 133.474 6.23918 133.475C6.37195 133.476 6.50319 133.504 6.62523 133.556C6.74727 133.608 6.85767 133.685 6.94999 133.78L10.485 137.315L16.85 130.952C17.0375 130.764 17.2919 130.659 17.5571 130.659C17.8224 130.659 18.0768 130.764 18.2645 130.952C18.4521 131.139 18.5576 131.393 18.5577 131.659C18.5578 131.924 18.4525 132.178 18.265 132.366L11.193 139.438C11.1002 139.531 10.9899 139.604 10.8686 139.655C10.7473 139.705 10.6173 139.73 10.486 139.73Z" fill="#2FAB73"/>
<path d="M47.1476 140C46.9142 140 46.7695 139.879 46.7135 139.636L44.9075 130.634L44.8795 130.48C44.8795 130.405 44.9075 130.34 44.9635 130.284C45.0195 130.228 45.0849 130.2 45.1595 130.2H45.8455C46.0415 130.2 46.1535 130.279 46.1815 130.438L47.6235 137.746L49.1775 132.706C49.2336 132.482 49.3782 132.37 49.6116 132.37H50.1016C50.3256 132.37 50.4749 132.482 50.5496 132.706L52.0896 137.746L53.5316 130.438C53.5596 130.279 53.6762 130.2 53.8816 130.2H54.5536C54.6282 130.2 54.6936 130.228 54.7495 130.284C54.8056 130.34 54.8336 130.405 54.8336 130.48C54.8336 130.536 54.8289 130.587 54.8195 130.634L52.9995 139.636C52.9529 139.879 52.8082 140 52.5656 140H52.0616C51.8282 140 51.6742 139.883 51.5996 139.65L49.8635 134.26L48.1135 139.65C48.0482 139.883 47.8989 140 47.6656 140H47.1476ZM59.1504 140.14C58.1237 140.14 57.3304 139.851 56.7704 139.272C56.2197 138.693 55.9257 137.923 55.8884 136.962L55.8744 136.36L55.8884 135.758C55.9257 134.797 56.2244 134.027 56.7844 133.448C57.3537 132.869 58.1424 132.58 59.1504 132.58C60.1584 132.58 60.9424 132.869 61.5024 133.448C62.0717 134.027 62.375 134.797 62.4124 135.758C62.431 135.963 62.4404 136.164 62.4404 136.36C62.4404 136.556 62.431 136.757 62.4124 136.962C62.375 137.923 62.0764 138.693 61.5164 139.272C60.9657 139.851 60.177 140.14 59.1504 140.14ZM59.1504 139.09C59.7477 139.09 60.219 138.903 60.5644 138.53C60.919 138.147 61.1104 137.601 61.1384 136.892C61.1477 136.799 61.1524 136.621 61.1524 136.36C61.1524 136.099 61.1477 135.921 61.1384 135.828C61.1104 135.119 60.919 134.577 60.5644 134.204C60.219 133.821 59.7477 133.63 59.1504 133.63C58.553 133.63 58.077 133.821 57.7224 134.204C57.377 134.577 57.1904 135.119 57.1624 135.828L57.1484 136.36L57.1624 136.892C57.1904 137.601 57.377 138.147 57.7224 138.53C58.077 138.903 58.553 139.09 59.1504 139.09ZM64.5301 140C64.4367 140 64.3574 139.972 64.2921 139.916C64.2361 139.851 64.2081 139.771 64.2081 139.678V133.056C64.2081 132.963 64.2361 132.883 64.2921 132.818C64.3574 132.753 64.4367 132.72 64.5301 132.72H65.1181C65.2207 132.72 65.3001 132.753 65.3561 132.818C65.4214 132.874 65.4541 132.953 65.4541 133.056V133.672C65.8367 133.037 66.4854 132.72 67.4001 132.72H67.9461C68.0487 132.72 68.1281 132.748 68.1841 132.804C68.2401 132.86 68.2681 132.939 68.2681 133.042V133.56C68.2681 133.653 68.2401 133.733 68.1841 133.798C68.1281 133.854 68.0487 133.882 67.9461 133.882H67.1481C66.6347 133.882 66.2287 134.031 65.9301 134.33C65.6407 134.629 65.4961 135.035 65.4961 135.548V139.678C65.4961 139.771 65.4634 139.851 65.3981 139.916C65.3327 139.972 65.2534 140 65.1601 140H64.5301ZM69.8078 140C69.7144 140 69.6351 139.972 69.5698 139.916C69.5138 139.851 69.4858 139.771 69.4858 139.678V130.382C69.4858 130.279 69.5138 130.2 69.5698 130.144C69.6351 130.088 69.7144 130.06 69.8078 130.06H70.4098C70.5031 130.06 70.5778 130.093 70.6338 130.158C70.6991 130.214 70.7318 130.289 70.7318 130.382V135.268L73.5318 132.958C73.6718 132.855 73.7698 132.79 73.8258 132.762C73.8818 132.734 73.9704 132.72 74.0918 132.72H74.7918C74.8758 132.72 74.9411 132.748 74.9878 132.804C75.0438 132.851 75.0718 132.921 75.0718 133.014C75.0718 133.098 75.0204 133.187 74.9178 133.28L71.6418 135.968L75.2678 139.44C75.3704 139.543 75.4218 139.631 75.4218 139.706C75.4218 139.79 75.3938 139.86 75.3378 139.916C75.2911 139.972 75.2258 140 75.1418 140H74.4558C74.3158 140 74.2131 139.986 74.1478 139.958C74.0918 139.93 74.0078 139.865 73.8958 139.762L70.7318 136.766V139.678C70.7318 139.771 70.6991 139.851 70.6338 139.916C70.5778 139.972 70.5031 140 70.4098 140H69.8078ZM79.0048 140.14C78.3608 140.14 77.8148 140.037 77.3668 139.832C76.9281 139.617 76.6014 139.375 76.3868 139.104C76.1721 138.833 76.0648 138.609 76.0648 138.432C76.0648 138.339 76.0974 138.269 76.1628 138.222C76.2281 138.166 76.2981 138.138 76.3728 138.138H76.9608C77.0168 138.138 77.0588 138.147 77.0868 138.166C77.1241 138.185 77.1708 138.227 77.2268 138.292C77.4414 138.553 77.6794 138.759 77.9408 138.908C78.2114 139.057 78.5708 139.132 79.0188 139.132C79.5228 139.132 79.9241 139.039 80.2228 138.852C80.5308 138.665 80.6848 138.395 80.6848 138.04C80.6848 137.807 80.6194 137.62 80.4888 137.48C80.3581 137.34 80.1388 137.214 79.8308 137.102C79.5321 136.99 79.0841 136.869 78.4868 136.738C77.6748 136.561 77.1008 136.304 76.7648 135.968C76.4288 135.632 76.2608 135.198 76.2608 134.666C76.2608 134.321 76.3634 133.989 76.5688 133.672C76.7741 133.345 77.0774 133.084 77.4788 132.888C77.8894 132.683 78.3748 132.58 78.9348 132.58C79.5228 132.58 80.0221 132.678 80.4328 132.874C80.8528 133.07 81.1654 133.299 81.3708 133.56C81.5854 133.821 81.6928 134.041 81.6928 134.218C81.6928 134.302 81.6601 134.372 81.5948 134.428C81.5388 134.484 81.4688 134.512 81.3848 134.512H80.8528C80.7221 134.512 80.6288 134.461 80.5728 134.358C80.4141 134.181 80.2788 134.045 80.1668 133.952C80.0641 133.849 79.9101 133.765 79.7048 133.7C79.4994 133.625 79.2428 133.588 78.9348 133.588C78.4774 133.588 78.1274 133.686 77.8848 133.882C77.6421 134.069 77.5208 134.321 77.5208 134.638C77.5208 134.834 77.5721 135.002 77.6748 135.142C77.7774 135.273 77.9734 135.399 78.2628 135.52C78.5521 135.632 78.9814 135.749 79.5508 135.87C80.4374 136.057 81.0628 136.323 81.4268 136.668C81.8001 137.013 81.9868 137.457 81.9868 137.998C81.9868 138.399 81.8701 138.763 81.6368 139.09C81.4128 139.417 81.0721 139.673 80.6148 139.86C80.1668 140.047 79.6301 140.14 79.0048 140.14ZM90.0215 140.14C88.9948 140.14 88.2015 139.851 87.6415 139.272C87.0908 138.693 86.7968 137.923 86.7595 136.962L86.7455 136.36L86.7595 135.758C86.7968 134.797 87.0955 134.027 87.6555 133.448C88.2248 132.869 89.0135 132.58 90.0215 132.58C91.0295 132.58 91.8135 132.869 92.3735 133.448C92.9428 134.027 93.2461 134.797 93.2835 135.758C93.3021 135.963 93.3115 136.164 93.3115 136.36C93.3115 136.556 93.3021 136.757 93.2835 136.962C93.2461 137.923 92.9475 138.693 92.3875 139.272C91.8368 139.851 91.0481 140.14 90.0215 140.14ZM90.0215 139.09C90.6188 139.09 91.0901 138.903 91.4355 138.53C91.7901 138.147 91.9815 137.601 92.0095 136.892C92.0188 136.799 92.0235 136.621 92.0235 136.36C92.0235 136.099 92.0188 135.921 92.0095 135.828C91.9815 135.119 91.7901 134.577 91.4355 134.204C91.0901 133.821 90.6188 133.63 90.0215 133.63C89.4241 133.63 88.9481 133.821 88.5935 134.204C88.2481 134.577 88.0615 135.119 88.0335 135.828L88.0195 136.36L88.0335 136.892C88.0615 137.601 88.2481 138.147 88.5935 138.53C88.9481 138.903 89.4241 139.09 90.0215 139.09ZM95.4012 140C95.3078 140 95.2285 139.972 95.1632 139.916C95.1072 139.851 95.0792 139.771 95.0792 139.678V133.042C95.0792 132.949 95.1072 132.874 95.1632 132.818C95.2285 132.753 95.3078 132.72 95.4012 132.72H96.0032C96.1058 132.72 96.1852 132.748 96.2412 132.804C96.2972 132.86 96.3252 132.939 96.3252 133.042V133.658C96.6052 133.313 96.9272 133.047 97.2912 132.86C97.6645 132.673 98.1265 132.58 98.6772 132.58C99.5732 132.58 100.269 132.869 100.763 133.448C101.258 134.017 101.505 134.773 101.505 135.716V139.678C101.505 139.771 101.473 139.851 101.407 139.916C101.351 139.972 101.277 140 101.183 140H100.539C100.446 140 100.367 139.972 100.301 139.916C100.245 139.851 100.217 139.771 100.217 139.678V135.8C100.217 135.128 100.054 134.605 99.7272 134.232C99.4005 133.859 98.9338 133.672 98.3272 133.672C97.7298 133.672 97.2538 133.863 96.8992 134.246C96.5445 134.619 96.3672 135.137 96.3672 135.8V139.678C96.3672 139.771 96.3345 139.851 96.2692 139.916C96.2132 139.972 96.1385 140 96.0452 140H95.4012ZM106.101 140C106.026 140 105.961 139.972 105.905 139.916C105.849 139.86 105.821 139.795 105.821 139.72L105.849 139.566L109.321 130.508C109.396 130.303 109.545 130.2 109.769 130.2H110.665C110.889 130.2 111.038 130.303 111.113 130.508L114.585 139.566L114.613 139.72C114.613 139.795 114.58 139.86 114.515 139.916C114.459 139.972 114.394 140 114.319 140H113.661C113.568 140 113.488 139.977 113.423 139.93C113.367 139.874 113.33 139.818 113.311 139.762L112.527 137.746H107.893L107.123 139.762C107.048 139.921 106.932 140 106.773 140H106.101ZM108.299 136.584H112.135L110.217 131.558L108.299 136.584ZM116.278 140C116.185 140 116.106 139.972 116.04 139.916C115.984 139.851 115.956 139.771 115.956 139.678V130.382C115.956 130.279 115.984 130.2 116.04 130.144C116.106 130.088 116.185 130.06 116.278 130.06H116.894C116.988 130.06 117.062 130.093 117.118 130.158C117.184 130.214 117.216 130.289 117.216 130.382V139.678C117.216 139.771 117.184 139.851 117.118 139.916C117.062 139.972 116.988 140 116.894 140H116.278ZM119.655 140C119.562 140 119.483 139.972 119.417 139.916C119.361 139.851 119.333 139.771 119.333 139.678V130.382C119.333 130.279 119.361 130.2 119.417 130.144C119.483 130.088 119.562 130.06 119.655 130.06H120.271C120.365 130.06 120.439 130.093 120.495 130.158C120.561 130.214 120.593 130.289 120.593 130.382V139.678C120.593 139.771 120.561 139.851 120.495 139.916C120.439 139.972 120.365 140 120.271 140H119.655ZM126.632 140C126.538 140 126.464 139.972 126.408 139.916C126.352 139.851 126.324 139.771 126.324 139.678V130.536C126.324 130.433 126.352 130.354 126.408 130.298C126.464 130.233 126.538 130.2 126.632 130.2H129.796C131.205 130.2 132.222 130.517 132.848 131.152C133.473 131.777 133.795 132.725 133.814 133.994C133.823 134.265 133.828 134.629 133.828 135.086C133.828 135.543 133.823 135.912 133.814 136.192C133.795 137.079 133.65 137.802 133.38 138.362C133.118 138.913 132.703 139.323 132.134 139.594C131.564 139.865 130.808 140 129.866 140H126.632ZM129.796 138.838C130.449 138.838 130.967 138.749 131.35 138.572C131.742 138.385 132.022 138.101 132.19 137.718C132.367 137.326 132.465 136.799 132.484 136.136C132.502 135.576 132.512 135.226 132.512 135.086C132.512 134.937 132.502 134.591 132.484 134.05C132.465 133.117 132.241 132.435 131.812 132.006C131.392 131.567 130.696 131.348 129.726 131.348H127.64V138.838H129.796ZM138.664 140.14C137.712 140.14 136.952 139.846 136.382 139.258C135.813 138.661 135.5 137.849 135.444 136.822L135.43 136.346L135.444 135.884C135.5 134.876 135.813 134.073 136.382 133.476C136.952 132.879 137.712 132.58 138.664 132.58C139.691 132.58 140.484 132.907 141.044 133.56C141.614 134.213 141.898 135.1 141.898 136.22V136.472C141.898 136.565 141.866 136.645 141.8 136.71C141.744 136.766 141.67 136.794 141.576 136.794H136.718V136.92C136.746 137.527 136.933 138.045 137.278 138.474C137.624 138.903 138.081 139.118 138.65 139.118C139.089 139.118 139.444 139.034 139.714 138.866C139.994 138.689 140.204 138.507 140.344 138.32C140.428 138.208 140.494 138.143 140.54 138.124C140.587 138.096 140.666 138.082 140.778 138.082H141.394C141.478 138.082 141.548 138.105 141.604 138.152C141.67 138.199 141.702 138.259 141.702 138.334C141.702 138.539 141.576 138.787 141.324 139.076C141.072 139.365 140.713 139.617 140.246 139.832C139.789 140.037 139.262 140.14 138.664 140.14ZM140.624 135.842V135.8C140.624 135.147 140.447 134.615 140.092 134.204C139.738 133.793 139.262 133.588 138.664 133.588C138.058 133.588 137.582 133.793 137.236 134.204C136.891 134.615 136.718 135.147 136.718 135.8V135.842H140.624ZM145.889 140C145.646 140 145.473 139.883 145.371 139.65L142.767 133.154C142.757 133.126 142.753 133.079 142.753 133.014C142.753 132.93 142.781 132.86 142.837 132.804C142.893 132.748 142.958 132.72 143.033 132.72H143.677C143.826 132.72 143.938 132.795 144.013 132.944L146.169 138.53L148.325 132.944C148.343 132.888 148.381 132.837 148.437 132.79C148.502 132.743 148.577 132.72 148.661 132.72H149.305C149.379 132.72 149.445 132.748 149.501 132.804C149.557 132.86 149.585 132.93 149.585 133.014L149.557 133.154L146.967 139.65C146.864 139.883 146.691 140 146.449 140H145.889ZM151.289 131.348C151.196 131.348 151.117 131.32 151.051 131.264C150.995 131.199 150.967 131.119 150.967 131.026V130.298C150.967 130.205 150.995 130.125 151.051 130.06C151.117 129.995 151.196 129.962 151.289 129.962H152.115C152.209 129.962 152.288 129.995 152.353 130.06C152.419 130.125 152.451 130.205 152.451 130.298V131.026C152.451 131.119 152.419 131.199 152.353 131.264C152.288 131.32 152.209 131.348 152.115 131.348H151.289ZM151.401 140C151.308 140 151.229 139.972 151.163 139.916C151.107 139.851 151.079 139.771 151.079 139.678V133.042C151.079 132.949 151.107 132.874 151.163 132.818C151.229 132.753 151.308 132.72 151.401 132.72H152.017C152.111 132.72 152.185 132.753 152.241 132.818C152.307 132.874 152.339 132.949 152.339 133.042V139.678C152.339 139.771 152.307 139.851 152.241 139.916C152.185 139.972 152.111 140 152.017 140H151.401ZM157.354 140.14C156.356 140.14 155.576 139.86 155.016 139.3C154.456 138.731 154.162 137.937 154.134 136.92L154.12 136.36L154.134 135.8C154.162 134.783 154.456 133.994 155.016 133.434C155.576 132.865 156.356 132.58 157.354 132.58C158.026 132.58 158.591 132.701 159.048 132.944C159.515 133.177 159.86 133.471 160.084 133.826C160.318 134.181 160.444 134.535 160.462 134.89C160.472 134.974 160.439 135.049 160.364 135.114C160.299 135.179 160.224 135.212 160.14 135.212H159.524C159.431 135.212 159.361 135.193 159.314 135.156C159.268 135.109 159.221 135.03 159.174 134.918C159.006 134.461 158.773 134.139 158.474 133.952C158.185 133.756 157.816 133.658 157.368 133.658C156.78 133.658 156.314 133.84 155.968 134.204C155.623 134.568 155.436 135.123 155.408 135.87L155.394 136.36L155.408 136.85C155.436 137.597 155.623 138.152 155.968 138.516C156.314 138.88 156.78 139.062 157.368 139.062C157.826 139.062 158.199 138.969 158.488 138.782C158.778 138.586 159.006 138.259 159.174 137.802C159.221 137.69 159.268 137.615 159.314 137.578C159.361 137.531 159.431 137.508 159.524 137.508H160.14C160.224 137.508 160.299 137.541 160.364 137.606C160.439 137.671 160.472 137.746 160.462 137.83C160.444 138.175 160.318 138.525 160.084 138.88C159.86 139.235 159.515 139.533 159.048 139.776C158.591 140.019 158.026 140.14 157.354 140.14ZM165.024 140.14C164.072 140.14 163.311 139.846 162.742 139.258C162.172 138.661 161.86 137.849 161.804 136.822L161.79 136.346L161.804 135.884C161.86 134.876 162.172 134.073 162.742 133.476C163.311 132.879 164.072 132.58 165.024 132.58C166.05 132.58 166.844 132.907 167.404 133.56C167.973 134.213 168.258 135.1 168.258 136.22V136.472C168.258 136.565 168.225 136.645 168.16 136.71C168.104 136.766 168.029 136.794 167.936 136.794H163.078V136.92C163.106 137.527 163.292 138.045 163.638 138.474C163.983 138.903 164.44 139.118 165.01 139.118C165.448 139.118 165.803 139.034 166.074 138.866C166.354 138.689 166.564 138.507 166.704 138.32C166.788 138.208 166.853 138.143 166.9 138.124C166.946 138.096 167.026 138.082 167.138 138.082H167.754C167.838 138.082 167.908 138.105 167.964 138.152C168.029 138.199 168.062 138.259 168.062 138.334C168.062 138.539 167.936 138.787 167.684 139.076C167.432 139.365 167.072 139.617 166.606 139.832C166.148 140.037 165.621 140.14 165.024 140.14ZM166.984 135.842V135.8C166.984 135.147 166.806 134.615 166.452 134.204C166.097 133.793 165.621 133.588 165.024 133.588C164.417 133.588 163.941 133.793 163.596 134.204C163.25 134.615 163.078 135.147 163.078 135.8V135.842H166.984ZM172.452 140.14C171.808 140.14 171.262 140.037 170.814 139.832C170.375 139.617 170.049 139.375 169.834 139.104C169.619 138.833 169.512 138.609 169.512 138.432C169.512 138.339 169.545 138.269 169.61 138.222C169.675 138.166 169.745 138.138 169.82 138.138H170.408C170.464 138.138 170.506 138.147 170.534 138.166C170.571 138.185 170.618 138.227 170.674 138.292C170.889 138.553 171.127 138.759 171.388 138.908C171.659 139.057 172.018 139.132 172.466 139.132C172.97 139.132 173.371 139.039 173.67 138.852C173.978 138.665 174.132 138.395 174.132 138.04C174.132 137.807 174.067 137.62 173.936 137.48C173.805 137.34 173.586 137.214 173.278 137.102C172.979 136.99 172.531 136.869 171.934 136.738C171.122 136.561 170.548 136.304 170.212 135.968C169.876 135.632 169.708 135.198 169.708 134.666C169.708 134.321 169.811 133.989 170.016 133.672C170.221 133.345 170.525 133.084 170.926 132.888C171.337 132.683 171.822 132.58 172.382 132.58C172.97 132.58 173.469 132.678 173.88 132.874C174.3 133.07 174.613 133.299 174.818 133.56C175.033 133.821 175.14 134.041 175.14 134.218C175.14 134.302 175.107 134.372 175.042 134.428C174.986 134.484 174.916 134.512 174.832 134.512H174.3C174.169 134.512 174.076 134.461 174.02 134.358C173.861 134.181 173.726 134.045 173.614 133.952C173.511 133.849 173.357 133.765 173.152 133.7C172.947 133.625 172.69 133.588 172.382 133.588C171.925 133.588 171.575 133.686 171.332 133.882C171.089 134.069 170.968 134.321 170.968 134.638C170.968 134.834 171.019 135.002 171.122 135.142C171.225 135.273 171.421 135.399 171.71 135.52C171.999 135.632 172.429 135.749 172.998 135.87C173.885 136.057 174.51 136.323 174.874 136.668C175.247 137.013 175.434 137.457 175.434 137.998C175.434 138.399 175.317 138.763 175.084 139.09C174.86 139.417 174.519 139.673 174.062 139.86C173.614 140.047 173.077 140.14 172.452 140.14Z" fill="#4F5665"/>
<path d="M49.1775 20.14C47.9736 20.14 47.0449 19.818 46.3915 19.174C45.7382 18.5207 45.4115 17.536 45.4115 16.22V10.536C45.4115 10.4333 45.4395 10.354 45.4955 10.298C45.5515 10.2327 45.6262 10.2 45.7195 10.2H46.3915C46.4942 10.2 46.5735 10.2327 46.6296 10.298C46.6949 10.354 46.7275 10.4333 46.7275 10.536V16.248C46.7275 17.1627 46.9376 17.844 47.3576 18.292C47.7869 18.74 48.3936 18.964 49.1775 18.964C49.9522 18.964 50.5496 18.74 50.9696 18.292C51.3989 17.8347 51.6136 17.1533 51.6136 16.248V10.536C51.6136 10.4333 51.6416 10.354 51.6976 10.298C51.7535 10.2327 51.8329 10.2 51.9356 10.2H52.6076C52.7009 10.2 52.7756 10.2327 52.8316 10.298C52.8969 10.354 52.9296 10.4333 52.9296 10.536V16.22C52.9296 17.536 52.6029 18.5207 51.9496 19.174C51.3056 19.818 50.3816 20.14 49.1775 20.14ZM55.4383 20C55.345 20 55.2656 19.972 55.2003 19.916C55.1443 19.8507 55.1163 19.7713 55.1163 19.678V13.042C55.1163 12.9487 55.1443 12.874 55.2003 12.818C55.2656 12.7527 55.345 12.72 55.4383 12.72H56.0403C56.143 12.72 56.2223 12.748 56.2783 12.804C56.3343 12.86 56.3623 12.9393 56.3623 13.042V13.658C56.6423 13.3127 56.9643 13.0467 57.3283 12.86C57.7016 12.6733 58.1636 12.58 58.7143 12.58C59.6103 12.58 60.3056 12.8693 60.8003 13.448C61.295 14.0173 61.5423 14.7733 61.5423 15.716V19.678C61.5423 19.7713 61.5096 19.8507 61.4443 19.916C61.3883 19.972 61.3136 20 61.2203 20H60.5763C60.483 20 60.4036 19.972 60.3383 19.916C60.2823 19.8507 60.2543 19.7713 60.2543 19.678V15.8C60.2543 15.128 60.091 14.6053 59.7643 14.232C59.4376 13.8587 58.971 13.672 58.3643 13.672C57.767 13.672 57.291 13.8633 56.9363 14.246C56.5816 14.6193 56.4043 15.1373 56.4043 15.8V19.678C56.4043 19.7713 56.3716 19.8507 56.3063 19.916C56.2503 19.972 56.1756 20 56.0823 20H55.4383ZM63.9015 20C63.8082 20 63.7288 19.972 63.6635 19.916C63.6075 19.8507 63.5795 19.7713 63.5795 19.678V10.382C63.5795 10.2793 63.6075 10.2 63.6635 10.144C63.7288 10.088 63.8082 10.06 63.9015 10.06H64.5175C64.6108 10.06 64.6855 10.0927 64.7415 10.158C64.8068 10.214 64.8395 10.2887 64.8395 10.382V19.678C64.8395 19.7713 64.8068 19.8507 64.7415 19.916C64.6855 19.972 64.6108 20 64.5175 20H63.9015ZM67.1525 11.348C67.0591 11.348 66.9798 11.32 66.9145 11.264C66.8585 11.1987 66.8305 11.1193 66.8305 11.026V10.298C66.8305 10.2047 66.8585 10.1253 66.9145 10.06C66.9798 9.99467 67.0591 9.962 67.1525 9.962H67.9785C68.0718 9.962 68.1511 9.99467 68.2165 10.06C68.2818 10.1253 68.3145 10.2047 68.3145 10.298V11.026C68.3145 11.1193 68.2818 11.1987 68.2165 11.264C68.1511 11.32 68.0718 11.348 67.9785 11.348H67.1525ZM67.2645 20C67.1711 20 67.0918 19.972 67.0265 19.916C66.9705 19.8507 66.9425 19.7713 66.9425 19.678V13.042C66.9425 12.9487 66.9705 12.874 67.0265 12.818C67.0918 12.7527 67.1711 12.72 67.2645 12.72H67.8805C67.9738 12.72 68.0485 12.7527 68.1045 12.818C68.1698 12.874 68.2025 12.9487 68.2025 13.042V19.678C68.2025 19.7713 68.1698 19.8507 68.1045 19.916C68.0485 19.972 67.9738 20 67.8805 20H67.2645ZM70.6277 20C70.5344 20 70.4551 19.972 70.3897 19.916C70.3337 19.8507 70.3057 19.7713 70.3057 19.678V13.042C70.3057 12.9487 70.3337 12.874 70.3897 12.818C70.4551 12.7527 70.5344 12.72 70.6277 12.72H71.2157C71.3091 12.72 71.3837 12.7527 71.4397 12.818C71.4957 12.874 71.5237 12.9487 71.5237 13.042V13.518C72.0277 12.8927 72.7091 12.58 73.5677 12.58C74.5944 12.58 75.3224 13.0093 75.7517 13.868C75.9757 13.476 76.2931 13.1633 76.7037 12.93C77.1237 12.6967 77.5904 12.58 78.1037 12.58C78.8691 12.58 79.4944 12.8413 79.9797 13.364C80.4651 13.8867 80.7077 14.6427 80.7077 15.632V19.678C80.7077 19.7713 80.6751 19.8507 80.6097 19.916C80.5537 19.972 80.4791 20 80.3857 20H79.7837C79.6904 20 79.6111 19.972 79.5457 19.916C79.4897 19.8507 79.4617 19.7713 79.4617 19.678V15.758C79.4617 15.0113 79.3077 14.4793 78.9997 14.162C78.6917 13.8353 78.2857 13.672 77.7817 13.672C77.3337 13.672 76.9464 13.84 76.6197 14.176C76.3024 14.5027 76.1437 15.03 76.1437 15.758V19.678C76.1437 19.7713 76.1111 19.8507 76.0457 19.916C75.9897 19.972 75.9151 20 75.8217 20H75.2057C75.1124 20 75.0331 19.972 74.9677 19.916C74.9117 19.8507 74.8837 19.7713 74.8837 19.678V15.758C74.8837 15.0207 74.7204 14.4887 74.3937 14.162C74.0764 13.8353 73.6797 13.672 73.2037 13.672C72.7557 13.672 72.3684 13.8353 72.0417 14.162C71.7244 14.4887 71.5657 15.016 71.5657 15.744V19.678C71.5657 19.7713 71.5331 19.8507 71.4677 19.916C71.4117 19.972 71.3371 20 71.2437 20H70.6277ZM82.9435 11.348C82.8501 11.348 82.7708 11.32 82.7055 11.264C82.6495 11.1987 82.6215 11.1193 82.6215 11.026V10.298C82.6215 10.2047 82.6495 10.1253 82.7055 10.06C82.7708 9.99467 82.8501 9.962 82.9435 9.962H83.7695C83.8628 9.962 83.9421 9.99467 84.0075 10.06C84.0728 10.1253 84.1055 10.2047 84.1055 10.298V11.026C84.1055 11.1193 84.0728 11.1987 84.0075 11.264C83.9421 11.32 83.8628 11.348 83.7695 11.348H82.9435ZM83.0555 20C82.9621 20 82.8828 19.972 82.8175 19.916C82.7615 19.8507 82.7335 19.7713 82.7335 19.678V13.042C82.7335 12.9487 82.7615 12.874 82.8175 12.818C82.8828 12.7527 82.9621 12.72 83.0555 12.72H83.6715C83.7648 12.72 83.8395 12.7527 83.8955 12.818C83.9608 12.874 83.9935 12.9487 83.9935 13.042V19.678C83.9935 19.7713 83.9608 19.8507 83.8955 19.916C83.8395 19.972 83.7648 20 83.6715 20H83.0555ZM88.8968 20C87.4501 20 86.7268 19.1833 86.7268 17.55V13.798H85.6208C85.5274 13.798 85.4528 13.77 85.3968 13.714C85.3408 13.658 85.3128 13.5833 85.3128 13.49V13.042C85.3128 12.9487 85.3408 12.874 85.3968 12.818C85.4528 12.7527 85.5274 12.72 85.6208 12.72H86.7268V10.382C86.7268 10.2887 86.7548 10.214 86.8108 10.158C86.8668 10.0927 86.9414 10.06 87.0348 10.06H87.6508C87.7441 10.06 87.8188 10.0927 87.8748 10.158C87.9401 10.214 87.9728 10.2887 87.9728 10.382V12.72H89.7088C89.8021 12.72 89.8768 12.7527 89.9328 12.818C89.9981 12.874 90.0308 12.9487 90.0308 13.042V13.49C90.0308 13.5833 89.9981 13.658 89.9328 13.714C89.8768 13.77 89.8021 13.798 89.7088 13.798H87.9728V17.452C87.9728 17.928 88.0474 18.2873 88.1968 18.53C88.3554 18.7727 88.6214 18.894 88.9948 18.894H89.8488C89.9421 18.894 90.0168 18.9267 90.0728 18.992C90.1288 19.048 90.1568 19.1227 90.1568 19.216V19.678C90.1568 19.7713 90.1288 19.8507 90.0728 19.916C90.0168 19.972 89.9421 20 89.8488 20H88.8968ZM94.4085 20.14C93.4565 20.14 92.6958 19.846 92.1265 19.258C91.5572 18.6607 91.2445 17.8487 91.1885 16.822L91.1745 16.346L91.1885 15.884C91.2445 14.876 91.5572 14.0733 92.1265 13.476C92.6958 12.8787 93.4565 12.58 94.4085 12.58C95.4352 12.58 96.2285 12.9067 96.7885 13.56C97.3578 14.2133 97.6425 15.1 97.6425 16.22V16.472C97.6425 16.5653 97.6098 16.6447 97.5445 16.71C97.4885 16.766 97.4138 16.794 97.3205 16.794H92.4625V16.92C92.4905 17.5267 92.6772 18.0447 93.0225 18.474C93.3678 18.9033 93.8252 19.118 94.3945 19.118C94.8332 19.118 95.1878 19.034 95.4585 18.866C95.7385 18.6887 95.9485 18.5067 96.0885 18.32C96.1725 18.208 96.2378 18.1427 96.2845 18.124C96.3312 18.096 96.4105 18.082 96.5225 18.082H97.1385C97.2225 18.082 97.2925 18.1053 97.3485 18.152C97.4138 18.1987 97.4465 18.2593 97.4465 18.334C97.4465 18.5393 97.3205 18.7867 97.0685 19.076C96.8165 19.3653 96.4572 19.6173 95.9905 19.832C95.5332 20.0373 95.0058 20.14 94.4085 20.14ZM96.3685 15.842V15.8C96.3685 15.1467 96.1912 14.6147 95.8365 14.204C95.4818 13.7933 95.0058 13.588 94.4085 13.588C93.8018 13.588 93.3258 13.7933 92.9805 14.204C92.6352 14.6147 92.4625 15.1467 92.4625 15.8V15.842H96.3685ZM102.005 20.14C101.025 20.14 100.287 19.8227 99.7928 19.188C99.3075 18.5533 99.0461 17.7507 99.0088 16.78L98.9948 16.36L99.0088 15.94C99.0461 14.9787 99.3121 14.1807 99.8068 13.546C100.301 12.902 101.034 12.58 102.005 12.58C102.975 12.58 103.731 12.9253 104.273 13.616V10.382C104.273 10.2887 104.301 10.214 104.357 10.158C104.422 10.0927 104.501 10.06 104.595 10.06H105.225C105.318 10.06 105.393 10.0927 105.449 10.158C105.514 10.214 105.547 10.2887 105.547 10.382V19.678C105.547 19.7713 105.514 19.8507 105.449 19.916C105.393 19.972 105.318 20 105.225 20H104.623C104.529 20 104.455 19.972 104.399 19.916C104.343 19.8507 104.315 19.7713 104.315 19.678V19.076C103.783 19.7853 103.013 20.14 102.005 20.14ZM102.271 19.048C102.924 19.048 103.414 18.8333 103.741 18.404C104.067 17.9653 104.245 17.4473 104.273 16.85C104.282 16.7473 104.287 16.57 104.287 16.318C104.287 16.0567 104.282 15.8747 104.273 15.772C104.254 15.2027 104.072 14.7127 103.727 14.302C103.391 13.882 102.905 13.672 102.271 13.672C101.599 13.672 101.109 13.882 100.801 14.302C100.493 14.722 100.325 15.2727 100.297 15.954L100.283 16.36C100.283 18.152 100.945 19.048 102.271 19.048ZM111.593 20C111.499 20 111.425 19.972 111.369 19.916C111.313 19.8507 111.285 19.7713 111.285 19.678V10.536C111.285 10.4333 111.313 10.354 111.369 10.298C111.425 10.2327 111.499 10.2 111.593 10.2H115.415C116.404 10.2 117.151 10.438 117.655 10.914C118.159 11.39 118.411 12.0107 118.411 12.776C118.411 13.2987 118.289 13.7373 118.047 14.092C117.804 14.4373 117.519 14.6893 117.193 14.848C117.594 15.044 117.93 15.3473 118.201 15.758C118.471 16.1687 118.607 16.64 118.607 17.172C118.607 17.6947 118.485 18.1707 118.243 18.6C118.009 19.0293 117.659 19.37 117.193 19.622C116.726 19.874 116.171 20 115.527 20H111.593ZM115.205 14.358C115.811 14.358 116.273 14.2227 116.591 13.952C116.908 13.672 117.067 13.2847 117.067 12.79C117.067 12.3047 116.908 11.936 116.591 11.684C116.283 11.432 115.821 11.306 115.205 11.306H112.601V14.358H115.205ZM115.345 18.894C115.942 18.894 116.409 18.7353 116.745 18.418C117.09 18.0913 117.263 17.676 117.263 17.172C117.263 16.6587 117.09 16.2433 116.745 15.926C116.409 15.6087 115.942 15.45 115.345 15.45H112.601V18.894H115.345ZM122.457 20.14C121.999 20.14 121.575 20.0467 121.183 19.86C120.8 19.6733 120.492 19.4213 120.259 19.104C120.035 18.7773 119.923 18.418 119.923 18.026C119.923 17.41 120.175 16.906 120.679 16.514C121.183 16.122 121.869 15.8607 122.737 15.73L124.837 15.436V15.03C124.837 14.0687 124.281 13.588 123.171 13.588C122.741 13.588 122.396 13.6767 122.135 13.854C121.873 14.022 121.682 14.2227 121.561 14.456C121.523 14.5493 121.481 14.6147 121.435 14.652C121.397 14.68 121.341 14.694 121.267 14.694H120.721C120.637 14.694 120.562 14.666 120.497 14.61C120.441 14.5447 120.413 14.47 120.413 14.386C120.413 14.1713 120.511 13.924 120.707 13.644C120.912 13.3547 121.225 13.1073 121.645 12.902C122.065 12.6873 122.578 12.58 123.185 12.58C124.23 12.58 124.977 12.8227 125.425 13.308C125.882 13.7933 126.111 14.4 126.111 15.128V19.678C126.111 19.7713 126.078 19.8507 126.013 19.916C125.957 19.972 125.882 20 125.789 20H125.173C125.079 20 125.005 19.972 124.949 19.916C124.893 19.8507 124.865 19.7713 124.865 19.678V19.062C124.659 19.37 124.361 19.6267 123.969 19.832C123.577 20.0373 123.073 20.14 122.457 20.14ZM122.737 19.118C123.353 19.118 123.857 18.9173 124.249 18.516C124.641 18.1147 124.837 17.5313 124.837 16.766V16.374L123.199 16.612C122.527 16.7053 122.018 16.864 121.673 17.088C121.327 17.312 121.155 17.592 121.155 17.928C121.155 18.3107 121.309 18.6047 121.617 18.81C121.934 19.0153 122.307 19.118 122.737 19.118ZM128.46 20C128.366 20 128.287 19.972 128.222 19.916C128.166 19.8507 128.138 19.7713 128.138 19.678V13.042C128.138 12.9487 128.166 12.874 128.222 12.818C128.287 12.7527 128.366 12.72 128.46 12.72H129.062C129.164 12.72 129.244 12.748 129.3 12.804C129.356 12.86 129.384 12.9393 129.384 13.042V13.658C129.664 13.3127 129.986 13.0467 130.35 12.86C130.723 12.6733 131.185 12.58 131.736 12.58C132.632 12.58 133.327 12.8693 133.822 13.448C134.316 14.0173 134.564 14.7733 134.564 15.716V19.678C134.564 19.7713 134.531 19.8507 134.466 19.916C134.41 19.972 134.335 20 134.242 20H133.598C133.504 20 133.425 19.972 133.36 19.916C133.304 19.8507 133.276 19.7713 133.276 19.678V15.8C133.276 15.128 133.112 14.6053 132.786 14.232C132.459 13.8587 131.992 13.672 131.386 13.672C130.788 13.672 130.312 13.8633 129.958 14.246C129.603 14.6193 129.426 15.1373 129.426 15.8V19.678C129.426 19.7713 129.393 19.8507 129.328 19.916C129.272 19.972 129.197 20 129.104 20H128.46ZM139.247 20.14C138.267 20.14 137.53 19.8227 137.035 19.188C136.55 18.5533 136.288 17.7507 136.251 16.78L136.237 16.36L136.251 15.94C136.288 14.9787 136.554 14.1807 137.049 13.546C137.544 12.902 138.276 12.58 139.247 12.58C140.218 12.58 140.974 12.9253 141.515 13.616V10.382C141.515 10.2887 141.543 10.214 141.599 10.158C141.664 10.0927 141.744 10.06 141.837 10.06H142.467C142.56 10.06 142.635 10.0927 142.691 10.158C142.756 10.214 142.789 10.2887 142.789 10.382V19.678C142.789 19.7713 142.756 19.8507 142.691 19.916C142.635 19.972 142.56 20 142.467 20H141.865C141.772 20 141.697 19.972 141.641 19.916C141.585 19.8507 141.557 19.7713 141.557 19.678V19.076C141.025 19.7853 140.255 20.14 139.247 20.14ZM139.513 19.048C140.166 19.048 140.656 18.8333 140.983 18.404C141.31 17.9653 141.487 17.4473 141.515 16.85C141.524 16.7473 141.529 16.57 141.529 16.318C141.529 16.0567 141.524 15.8747 141.515 15.772C141.496 15.2027 141.314 14.7127 140.969 14.302C140.633 13.882 140.148 13.672 139.513 13.672C138.841 13.672 138.351 13.882 138.043 14.302C137.735 14.722 137.567 15.2727 137.539 15.954L137.525 16.36C137.525 18.152 138.188 19.048 139.513 19.048ZM146.831 20C146.701 20 146.603 19.972 146.537 19.916C146.472 19.86 146.421 19.7713 146.383 19.65L144.395 13.154L144.367 13.014C144.367 12.93 144.395 12.86 144.451 12.804C144.507 12.748 144.577 12.72 144.661 12.72H145.235C145.329 12.72 145.403 12.748 145.459 12.804C145.525 12.8507 145.562 12.8973 145.571 12.944L147.153 18.292L148.833 13.014C148.852 12.9393 148.894 12.874 148.959 12.818C149.025 12.7527 149.113 12.72 149.225 12.72H149.673C149.785 12.72 149.874 12.7527 149.939 12.818C150.005 12.874 150.047 12.9393 150.065 13.014L151.745 18.292L153.327 12.944C153.337 12.8973 153.369 12.8507 153.425 12.804C153.491 12.748 153.57 12.72 153.663 12.72H154.237C154.321 12.72 154.391 12.748 154.447 12.804C154.503 12.86 154.531 12.93 154.531 13.014L154.503 13.154L152.515 19.65C152.478 19.7713 152.427 19.86 152.361 19.916C152.296 19.972 152.198 20 152.067 20H151.563C151.321 20 151.162 19.8833 151.087 19.65L149.449 14.582L147.811 19.65C147.737 19.8833 147.578 20 147.335 20H146.831ZM156.307 11.348C156.213 11.348 156.134 11.32 156.069 11.264C156.013 11.1987 155.985 11.1193 155.985 11.026V10.298C155.985 10.2047 156.013 10.1253 156.069 10.06C156.134 9.99467 156.213 9.962 156.307 9.962H157.133C157.226 9.962 157.305 9.99467 157.371 10.06C157.436 10.1253 157.469 10.2047 157.469 10.298V11.026C157.469 11.1193 157.436 11.1987 157.371 11.264C157.305 11.32 157.226 11.348 157.133 11.348H156.307ZM156.419 20C156.325 20 156.246 19.972 156.181 19.916C156.125 19.8507 156.097 19.7713 156.097 19.678V13.042C156.097 12.9487 156.125 12.874 156.181 12.818C156.246 12.7527 156.325 12.72 156.419 12.72H157.035C157.128 12.72 157.203 12.7527 157.259 12.818C157.324 12.874 157.357 12.9487 157.357 13.042V19.678C157.357 19.7713 157.324 19.8507 157.259 19.916C157.203 19.972 157.128 20 157.035 20H156.419ZM162.26 20C160.813 20 160.09 19.1833 160.09 17.55V13.798H158.984C158.891 13.798 158.816 13.77 158.76 13.714C158.704 13.658 158.676 13.5833 158.676 13.49V13.042C158.676 12.9487 158.704 12.874 158.76 12.818C158.816 12.7527 158.891 12.72 158.984 12.72H160.09V10.382C160.09 10.2887 160.118 10.214 160.174 10.158C160.23 10.0927 160.305 10.06 160.398 10.06H161.014C161.107 10.06 161.182 10.0927 161.238 10.158C161.303 10.214 161.336 10.2887 161.336 10.382V12.72H163.072C163.165 12.72 163.24 12.7527 163.296 12.818C163.361 12.874 163.394 12.9487 163.394 13.042V13.49C163.394 13.5833 163.361 13.658 163.296 13.714C163.24 13.77 163.165 13.798 163.072 13.798H161.336V17.452C161.336 17.928 161.411 18.2873 161.56 18.53C161.719 18.7727 161.985 18.894 162.358 18.894H163.212C163.305 18.894 163.38 18.9267 163.436 18.992C163.492 19.048 163.52 19.1227 163.52 19.216V19.678C163.52 19.7713 163.492 19.8507 163.436 19.916C163.38 19.972 163.305 20 163.212 20H162.26ZM167.8 20.14C166.801 20.14 166.022 19.86 165.462 19.3C164.902 18.7307 164.608 17.9373 164.58 16.92L164.566 16.36L164.58 15.8C164.608 14.7827 164.902 13.994 165.462 13.434C166.022 12.8647 166.801 12.58 167.8 12.58C168.472 12.58 169.036 12.7013 169.494 12.944C169.96 13.1773 170.306 13.4713 170.53 13.826C170.763 14.1807 170.889 14.5353 170.908 14.89C170.917 14.974 170.884 15.0487 170.81 15.114C170.744 15.1793 170.67 15.212 170.586 15.212H169.97C169.876 15.212 169.806 15.1933 169.76 15.156C169.713 15.1093 169.666 15.03 169.62 14.918C169.452 14.4607 169.218 14.1387 168.92 13.952C168.63 13.756 168.262 13.658 167.814 13.658C167.226 13.658 166.759 13.84 166.414 14.204C166.068 14.568 165.882 15.1233 165.854 15.87L165.84 16.36L165.854 16.85C165.882 17.5967 166.068 18.152 166.414 18.516C166.759 18.88 167.226 19.062 167.814 19.062C168.271 19.062 168.644 18.9687 168.934 18.782C169.223 18.586 169.452 18.2593 169.62 17.802C169.666 17.69 169.713 17.6153 169.76 17.578C169.806 17.5313 169.876 17.508 169.97 17.508H170.586C170.67 17.508 170.744 17.5407 170.81 17.606C170.884 17.6713 170.917 17.746 170.908 17.83C170.889 18.1753 170.763 18.5253 170.53 18.88C170.306 19.2347 169.96 19.5333 169.494 19.776C169.036 20.0187 168.472 20.14 167.8 20.14ZM172.921 20C172.828 20 172.748 19.972 172.683 19.916C172.627 19.8507 172.599 19.7713 172.599 19.678V10.382C172.599 10.2793 172.627 10.2 172.683 10.144C172.748 10.088 172.828 10.06 172.921 10.06H173.565C173.668 10.06 173.747 10.088 173.803 10.144C173.859 10.2 173.887 10.2793 173.887 10.382V13.644C174.158 13.2987 174.475 13.0373 174.839 12.86C175.212 12.6733 175.67 12.58 176.211 12.58C177.107 12.58 177.802 12.8693 178.297 13.448C178.801 14.0173 179.053 14.7733 179.053 15.716V19.678C179.053 19.7713 179.02 19.8507 178.955 19.916C178.899 19.972 178.824 20 178.731 20H178.073C177.98 20 177.9 19.972 177.835 19.916C177.779 19.8507 177.751 19.7713 177.751 19.678V15.8C177.751 15.128 177.588 14.6053 177.261 14.232C176.934 13.8587 176.463 13.672 175.847 13.672C175.25 13.672 174.774 13.8633 174.419 14.246C174.064 14.6193 173.887 15.1373 173.887 15.8V19.678C173.887 19.7713 173.854 19.8507 173.789 19.916C173.733 19.972 173.658 20 173.565 20H172.921Z" fill="#4F5665"/>
<path d="M10.5805 19.73C10.4492 19.7303 10.3192 19.7046 10.1979 19.6545C10.0765 19.6044 9.96629 19.5308 9.87347 19.438L5.63147 15.195C5.5359 15.1028 5.45964 14.9925 5.40715 14.8706C5.35465 14.7486 5.32697 14.6174 5.32573 14.4846C5.32448 14.3518 5.34969 14.2201 5.39988 14.0972C5.45008 13.9743 5.52425 13.8626 5.61808 13.7686C5.7119 13.6747 5.8235 13.6003 5.94636 13.55C6.06922 13.4996 6.20088 13.4742 6.33366 13.4753C6.46644 13.4763 6.59768 13.5038 6.71972 13.5561C6.84176 13.6085 6.95216 13.6846 7.04447 13.78L10.5795 17.315L16.9445 10.952C17.132 10.7644 17.3863 10.6589 17.6516 10.6588C17.9169 10.6587 18.1713 10.764 18.359 10.9515C18.5466 11.139 18.6521 11.3934 18.6522 11.6586C18.6523 11.9239 18.547 12.1784 18.3595 12.366L11.2875 19.438C11.1946 19.5308 11.0844 19.6044 10.9631 19.6545C10.8418 19.7046 10.7117 19.7303 10.5805 19.73Z" fill="#2FAB73"/>
</svg>
